<?xml version="1.0" encoding="UTF-8" standalone="no"?>
<svg
   xmlns:dc="http://purl.org/dc/elements/1.1/"
   xmlns:cc="http://creativecommons.org/ns#"
   xmlns:rdf="http://www.w3.org/1999/02/22-rdf-syntax-ns#"
   xmlns:svg="http://www.w3.org/2000/svg"
   xmlns="http://www.w3.org/2000/svg"
   xmlns:sodipodi="http://sodipodi.sourceforge.net/DTD/sodipodi-0.dtd"
   xmlns:inkscape="http://www.inkscape.org/namespaces/inkscape"
   id="svg8"
   version="1.1"
   viewBox="0 0 26.040337 22.4536"
   height="22.4536mm"
   width="26.040337mm"
   sodipodi:docname="flag.svg"
   inkscape:version="0.92.4 (unknown)">
  <sodipodi:namedview
     pagecolor="#ffffff"
     bordercolor="#666666"
     borderopacity="1"
     objecttolerance="10"
     gridtolerance="10"
     guidetolerance="10"
     inkscape:pageopacity="0"
     inkscape:pageshadow="2"
     inkscape:window-width="1920"
     inkscape:window-height="1023"
     id="namedview10"
     showgrid="false"
     inkscape:zoom="7.8656297"
     inkscape:cx="32.768246"
     inkscape:cy="59.132502"
     inkscape:window-x="0"
     inkscape:window-y="31"
     inkscape:window-maximized="1"
     inkscape:current-layer="flowRoot3713" />
  <defs
     id="defs2" />
  <metadata
     id="metadata5">
    <rdf:RDF>
      <cc:Work
         rdf:about="">
        <dc:format>image/svg+xml</dc:format>
        <dc:type
           rdf:resource="http://purl.org/dc/dcmitype/StillImage" />
        <dc:title />
      </cc:Work>
    </rdf:RDF>
  </metadata>
  <g
     transform="translate(-34.21224,-195.39996)"
     id="layer1">
    <g
       aria-label="π"
       transform="scale(0.26458333)"
       style="font-style:normal;font-variant:normal;font-weight:normal;font-stretch:normal;font-size:40px;line-height:1.25;font-family:'Latin Modern Math';-inkscape-font-specification:'Latin Modern Math';letter-spacing:0px;word-spacing:0px;fill:#000000;fill-opacity:1;stroke:none"
       id="flowRoot3713">
      <path
         d="m 227.45227,743.12753 c -1.152,-4.608 -5.184,-4.608 -8.832,-4.608 h -64.32 c -4.224,0 -11.52,0 -17.664,9.024 -4.8,7.488 -7.68,16.32 -7.296,17.28 0,0 0.384,1.92 2.688,1.92 1.536,0 1.728,-0.768 2.496,-2.304 5.76,-14.784 16.896,-14.784 20.736,-14.784 h 10.944 c -0.384,23.232 -4.992,46.464 -8.64,63.936 -0.768,2.88 -0.768,3.264 -0.384,4.608 0.96,3.648 4.416,5.184 6.912,5.184 5.76,0 5.952,-5.376 6.528,-12.48 l 0.384,-18.816 0.192,-42.432 h 21.696 c 0.768,28.416 1.152,36.672 4.224,49.536 0.768,2.88 2.112,8.064 5.184,14.592 4.032,8.448 6.528,9.6 9.408,9.6 3.84,0 6.912,-3.456 5.952,-7.296 -0.192,-1.152 -0.384,-1.536 -2.112,-4.224 -9.024,-13.824 -12.096,-26.304 -13.44,-31.68 -2.688,-10.176 -3.84,-20.544 -4.224,-30.528 h 21.888 c 2.496,0 9.408,0 7.68,-6.528 z"
         style="font-size:192px"
         id="path12" />
    </g>
  </g>
</svg>
